<svg xmlns="http://www.w3.org/2000/svg" viewBox="0 0 127.29 103.45"><path d="M127.29,12.25a52.12,52.12,0,0,1-15,4.11A26.21,26.21,0,0,0,123.78,1.91a52.28,52.28,0,0,1-16.58,6.34,26.14,26.14,0,0,0-44.5,23.82A74.14,74.14,0,0,1,8.86,4.78a26.14,26.14,0,0,0,8.08,34.87A26,26,0,0,1,5.11,36.38c0,.11,0,.22,0,.33a26.13,26.13,0,0,0,21,25.61,26.18,26.18,0,0,1-11.79.45A26.14,26.14,0,0,0,38.66,80.9,52.39,52.39,0,0,1,6.23,92.08,52.77,52.77,0,0,1,0,91.72a73.88,73.88,0,0,0,40,11.74c48,0,74.31-39.79,74.31-74.31q0-1.7-.08-3.38a53,53,0,0,0,13-13.52Zm0,0" fill="#fff"/></svg>