<svg xmlns="http://www.w3.org/2000/svg" viewBox="0 0 127.31 127.31"><path d="M92.21,0H35.09A35.09,35.09,0,0,0,0,35.09V92.21a35.09,35.09,0,0,0,35.09,35.09H92.21a35.09,35.09,0,0,0,35.09-35.09V35.09A35.09,35.09,0,0,0,92.21,0ZM117,92.07a25,25,0,0,1-25,25H35.24a25,25,0,0,1-25-25V35.24a25,25,0,0,1,25-25H92.07a25,25,0,0,1,25,25Z" fill="#fff"/><path d="M63.65,30.1A33.55,33.55,0,1,0,97.2,63.65,33.55,33.55,0,0,0,63.65,30.1Zm0,55.43A21.88,21.88,0,1,1,85.54,63.65,21.88,21.88,0,0,1,63.65,85.54Z" fill="#fff"/><circle cx="98.34" cy="28.99" r="7.53" fill="#fff"/></svg>