<svg xmlns="http://www.w3.org/2000/svg" viewBox="0 0 479.61 51.52"><path d="M144.88,49h-7.29L125.82,28.56h-.17q.07,1.28.13,2.57t.11,2.58Q126,35,126,36.3V49h-5.12V22h7.23l11.75,20.26H140q0-1.26-.09-2.5t-.1-2.48q0-1.24-.08-2.48V22h5.16Z" fill="#fff"/><path d="M172,49l-2-6.44h-9.86l-2,6.44h-6.18l9.55-27.16h7L178.21,49ZM168.7,37.78l-2-6.29c-.12-.42-.29-1-.49-1.62s-.41-1.33-.61-2-.37-1.28-.49-1.79q-.18.76-.51,1.88L164,30.06c-.2.67-.34,1.14-.43,1.42l-1.94,6.29Z" fill="#fff"/><path d="M195.83,49H190.1V26.75h-7.34V22h20.42v4.77h-7.34Z" fill="#fff"/><path d="M233.1,22v17.5a10.32,10.32,0,0,1-1.23,5,8.77,8.77,0,0,1-3.72,3.56,13.32,13.32,0,0,1-6.26,1.31q-5.36,0-8.18-2.74a9.66,9.66,0,0,1-2.81-7.25V22h5.72V38.53q0,3.35,1.37,4.7A5.54,5.54,0,0,0,222,44.58a6.32,6.32,0,0,0,3.06-.65,3.87,3.87,0,0,0,1.73-2,9.13,9.13,0,0,0,.55-3.44V22Z" fill="#fff"/><path d="M251.4,22a17.7,17.7,0,0,1,6.08.89A7,7,0,0,1,261,25.55a8.17,8.17,0,0,1,1.17,4.53,7.07,7.07,0,0,1-.7,3.24,7.37,7.37,0,0,1-1.85,2.35,10.88,10.88,0,0,1-2.48,1.57l8,11.78h-6.36L252.3,38.65h-3.05V49h-5.74V22Zm-.41,4.7h-1.74V34h1.85a6.77,6.77,0,0,0,4.08-1,3.33,3.33,0,0,0,1.23-2.8,3,3,0,0,0-1.32-2.74A8,8,0,0,0,251,26.68Z" fill="#fff"/><path d="M294.44,49h-5.72V37.35H278V49h-5.74V22H278v10.6h10.71V22h5.72Z" fill="#fff"/><path d="M329.56,35.46a19.53,19.53,0,0,1-.78,5.69,12.09,12.09,0,0,1-2.36,4.41,10.28,10.28,0,0,1-4,2.84,17.1,17.1,0,0,1-11.47,0,10.28,10.28,0,0,1-4-2.84,12.07,12.07,0,0,1-2.36-4.42,19.69,19.69,0,0,1-.78-5.72,18,18,0,0,1,1.38-7.32,10.41,10.41,0,0,1,4.25-4.84,14,14,0,0,1,7.29-1.72A13.8,13.8,0,0,1,324,23.27a10.44,10.44,0,0,1,4.22,4.85A18.08,18.08,0,0,1,329.56,35.46Zm-19.74,0a14.86,14.86,0,0,0,.71,4.87,6.32,6.32,0,0,0,2.23,3.15,6.52,6.52,0,0,0,3.92,1.1,6.59,6.59,0,0,0,4-1.1,6.22,6.22,0,0,0,2.21-3.15,15.24,15.24,0,0,0,.69-4.87,12.17,12.17,0,0,0-1.59-6.7q-1.59-2.44-5.24-2.44a6.6,6.6,0,0,0-3.95,1.1,6.3,6.3,0,0,0-2.24,3.14A14.94,14.94,0,0,0,309.83,35.46Z" fill="#fff"/><path d="M350.41,49,343.9,27.8h-.17q0,.76.12,2.29t.16,3.25q.07,1.72.07,3.11V49H339V22h7.81l6.4,20.68h.11L360.06,22h7.81V49h-5.35V36.22q0-1.28,0-2.94t.12-3.17q.07-1.51.11-2.27h-.17l-7,21.18Z" fill="#fff"/><path d="M394,49H378.47V22H394v4.7H384.2v5.94h9.16v4.7H384.2v7H394Z" fill="#fff"/><path d="M425.88,35.24a15.19,15.19,0,0,1-1.75,7.63,11,11,0,0,1-5.06,4.61,18.74,18.74,0,0,1-8,1.54h-7.66V22h8.49a16.84,16.84,0,0,1,7.38,1.51,11,11,0,0,1,4.85,4.46A14.29,14.29,0,0,1,425.88,35.24Zm-6,.15a12,12,0,0,0-.88-4.93,5.91,5.91,0,0,0-2.59-2.86,8.8,8.8,0,0,0-4.23-.92h-3.05V44.29h2.46q4.2,0,6.24-2.24T419.92,35.39Z" fill="#fff"/><path d="M450.81,49H435.23V22h15.58v4.7H441v5.94h9.16v4.7H441v7h9.84Z" fill="#fff"/><path d="M471.69,26.36a6.4,6.4,0,0,0-2.91.64,5.8,5.8,0,0,0-2.13,1.84,8.74,8.74,0,0,0-1.3,2.9,15.2,15.2,0,0,0-.44,3.83,14.83,14.83,0,0,0,.71,4.89,6.15,6.15,0,0,0,2.21,3.09,6.52,6.52,0,0,0,3.87,1.06,15.07,15.07,0,0,0,3.3-.37,31.9,31.9,0,0,0,3.6-1.05V48a17.78,17.78,0,0,1-3.53,1.06,21.44,21.44,0,0,1-3.9.32,12.5,12.5,0,0,1-6.87-1.73,10.29,10.29,0,0,1-4-4.85A18.88,18.88,0,0,1,459,35.54a18,18,0,0,1,.83-5.62,12.72,12.72,0,0,1,2.44-4.42,10.77,10.77,0,0,1,4-2.89,13.66,13.66,0,0,1,5.44-1,16.51,16.51,0,0,1,4,.51,20.43,20.43,0,0,1,3.88,1.4l-1.85,4.66a30.88,30.88,0,0,0-3.05-1.26A9.12,9.12,0,0,0,471.69,26.36Z" fill="#fff"/><polygon points="36.32 3.02 2.5 26.02 2.5 49.02 70.15 49.02 70.15 26.02 36.32 3.02" fill="none" stroke="#fff" stroke-miterlimit="10" stroke-width="5"/></svg>