<svg xmlns="http://www.w3.org/2000/svg" viewBox="0 0 358.72 107.59"><title>Asset 1</title><path d="M27.4,107.22H20.11L8.34,86.76H8.18q.07,1.28.13,2.57t.11,2.58q.06,1.29.11,2.58v12.73H3.4v-27h7.23l11.75,20.26h.13q0-1.26-.09-2.5t-.1-2.48q0-1.24-.08-2.48V80.17H27.4Z" transform="translate(-3.4)" fill="#fff"/><path d="M54.55,107.22l-2-6.44H42.73l-2,6.44H34.59l9.55-27.16h7l9.58,27.16ZM51.22,96l-2-6.29c-.12-.42-.29-1-.49-1.62s-.41-1.33-.61-2-.37-1.28-.49-1.79q-.18.76-.51,1.88l-.62,2.12c-.2.67-.34,1.14-.43,1.42L44.17,96Z" transform="translate(-3.4)" fill="#fff"/><path d="M78.35,107.22H72.62V84.95H65.28V80.17H85.7v4.77H78.35Z" transform="translate(-3.4)" fill="#fff"/><path d="M115.63,80.17v17.5a10.32,10.32,0,0,1-1.23,5,8.77,8.77,0,0,1-3.72,3.56,13.32,13.32,0,0,1-6.26,1.31q-5.36,0-8.18-2.74a9.66,9.66,0,0,1-2.81-7.25V80.17h5.72V96.73q0,3.35,1.37,4.7a5.54,5.54,0,0,0,4.05,1.35,6.32,6.32,0,0,0,3.06-.65,3.87,3.87,0,0,0,1.73-2,9.13,9.13,0,0,0,.55-3.44V80.17Z" transform="translate(-3.4)" fill="#fff"/><path d="M133.92,80.17a17.7,17.7,0,0,1,6.08.89,7,7,0,0,1,3.56,2.68,8.17,8.17,0,0,1,1.17,4.53,7.07,7.07,0,0,1-.7,3.24,7.37,7.37,0,0,1-1.85,2.35,10.88,10.88,0,0,1-2.48,1.57l8,11.78h-6.36l-6.46-10.38h-3.05v10.38H126v-27Zm-.41,4.7h-1.74v7.31h1.85a6.77,6.77,0,0,0,4.08-1,3.33,3.33,0,0,0,1.23-2.8,3,3,0,0,0-1.32-2.74A8,8,0,0,0,133.51,84.87Z" transform="translate(-3.4)" fill="#fff"/><path d="M177,107.22h-5.72V95.55H160.53v11.67H154.8v-27h5.74v10.6h10.71V80.17H177Z" transform="translate(-3.4)" fill="#fff"/><path d="M212.08,93.66a19.53,19.53,0,0,1-.78,5.69,12.09,12.09,0,0,1-2.36,4.41,10.28,10.28,0,0,1-4,2.84,17.1,17.1,0,0,1-11.47,0,10.28,10.28,0,0,1-4-2.84,12.07,12.07,0,0,1-2.36-4.42,19.69,19.69,0,0,1-.78-5.72,18,18,0,0,1,1.38-7.32A10.41,10.41,0,0,1,192,81.47a14,14,0,0,1,7.29-1.72,13.8,13.8,0,0,1,7.24,1.72,10.44,10.44,0,0,1,4.22,4.85A18.08,18.08,0,0,1,212.08,93.66Zm-19.74,0a14.86,14.86,0,0,0,.71,4.87,6.32,6.32,0,0,0,2.23,3.15,6.52,6.52,0,0,0,3.92,1.1,6.59,6.59,0,0,0,4-1.1,6.22,6.22,0,0,0,2.21-3.15,15.24,15.24,0,0,0,.69-4.87,12.17,12.17,0,0,0-1.59-6.7q-1.59-2.44-5.24-2.44a6.6,6.6,0,0,0-3.95,1.1,6.3,6.3,0,0,0-2.24,3.14A14.94,14.94,0,0,0,192.35,93.66Z" transform="translate(-3.4)" fill="#fff"/><path d="M232.93,107.22,226.42,86h-.17q0,.76.12,2.29t.16,3.25q.07,1.72.07,3.11v12.58h-5.12v-27h7.81l6.4,20.68h.11l6.79-20.68h7.81v27H245V94.42q0-1.28,0-2.94t.12-3.17q.07-1.51.11-2.27h-.17l-7,21.18Z" transform="translate(-3.4)" fill="#fff"/><path d="M276.56,107.22H261v-27h15.58v4.7h-9.84v5.94h9.16v4.7h-9.16v7h9.84Z" transform="translate(-3.4)" fill="#fff"/><path d="M308.4,93.44a15.19,15.19,0,0,1-1.75,7.63,11,11,0,0,1-5.06,4.61,18.74,18.74,0,0,1-8,1.54H286v-27h8.49a16.84,16.84,0,0,1,7.38,1.51,11,11,0,0,1,4.85,4.46A14.29,14.29,0,0,1,308.4,93.44Zm-6,.15a12,12,0,0,0-.88-4.93A5.91,5.91,0,0,0,299,85.8a8.8,8.8,0,0,0-4.23-.92h-3.05v17.61h2.46q4.2,0,6.24-2.24T302.44,93.58Z" transform="translate(-3.4)" fill="#fff"/><path d="M333.33,107.22H317.75v-27h15.58v4.7h-9.84v5.94h9.16v4.7h-9.16v7h9.84Z" transform="translate(-3.4)" fill="#fff"/><path d="M354.21,84.56a6.4,6.4,0,0,0-2.91.64A5.8,5.8,0,0,0,349.17,87a8.74,8.74,0,0,0-1.3,2.9,15.2,15.2,0,0,0-.44,3.83,14.83,14.83,0,0,0,.71,4.89,6.15,6.15,0,0,0,2.21,3.09,6.52,6.52,0,0,0,3.87,1.06,15.07,15.07,0,0,0,3.3-.37,31.9,31.9,0,0,0,3.6-1.05v4.81a17.78,17.78,0,0,1-3.53,1.06,21.44,21.44,0,0,1-3.9.32,12.5,12.5,0,0,1-6.87-1.73,10.29,10.29,0,0,1-4-4.85,18.88,18.88,0,0,1-1.29-7.28,18,18,0,0,1,.83-5.62,12.72,12.72,0,0,1,2.44-4.42,10.77,10.77,0,0,1,4-2.89,13.66,13.66,0,0,1,5.44-1,16.51,16.51,0,0,1,4,.51,20.43,20.43,0,0,1,3.88,1.4l-1.85,4.66a30.88,30.88,0,0,0-3.05-1.26A9.12,9.12,0,0,0,354.21,84.56Z" transform="translate(-3.4)" fill="#fff"/><polygon points="180.33 3.02 146.51 26.02 146.51 49.02 214.16 49.02 214.16 26.02 180.33 3.02" fill="none" stroke="#fff" stroke-miterlimit="10" stroke-width="5"/></svg>