<svg xmlns="http://www.w3.org/2000/svg">
<defs>
<style>
.img { display: none }
.img:target { display: inline }
</style>
</defs>
<svg viewBox="0 0 65.66 124.71"><g id="facebook" class="img"><path d="M63.1,70.69H43.3v54H14v-54H0V45.75H14V29.61C14,18.07,19.44,0,43.57,0L65.3.09V24.3H49.53c-2.59,0-6.23,1.29-6.23,6.8V45.77H65.66Zm-3.32,6.63" fill="#fff"/></g></svg>
<svg viewBox="0 0 127.31 127.31"><g id="instagram" class="img"><path d="M92.21,0H35.09A35.09,35.09,0,0,0,0,35.09V92.21a35.09,35.09,0,0,0,35.09,35.09H92.21a35.09,35.09,0,0,0,35.09-35.09V35.09A35.09,35.09,0,0,0,92.21,0ZM117,92.07a25,25,0,0,1-25,25H35.24a25,25,0,0,1-25-25V35.24a25,25,0,0,1,25-25H92.07a25,25,0,0,1,25,25Z" fill="#fff"/><path d="M63.65,30.1A33.55,33.55,0,1,0,97.2,63.65,33.55,33.55,0,0,0,63.65,30.1Zm0,55.43A21.88,21.88,0,1,1,85.54,63.65,21.88,21.88,0,0,1,63.65,85.54Z" fill="#fff"/><circle cx="98.34" cy="28.99" r="7.53" fill="#fff"/></g></svg>
<svg viewBox="0 0 127.29 103.45"><g id="twitter" class="img"><path d="M127.29,12.25a52.12,52.12,0,0,1-15,4.11A26.21,26.21,0,0,0,123.78,1.91a52.28,52.28,0,0,1-16.58,6.34,26.14,26.14,0,0,0-44.5,23.82A74.14,74.14,0,0,1,8.86,4.78a26.14,26.14,0,0,0,8.08,34.87A26,26,0,0,1,5.11,36.38c0,.11,0,.22,0,.33a26.13,26.13,0,0,0,21,25.61,26.18,26.18,0,0,1-11.79.45A26.14,26.14,0,0,0,38.66,80.9,52.39,52.39,0,0,1,6.23,92.08,52.77,52.77,0,0,1,0,91.72a73.88,73.88,0,0,0,40,11.74c48,0,74.31-39.79,74.31-74.31q0-1.7-.08-3.38a53,53,0,0,0,13-13.52Zm0,0" fill="#fff"/></g></svg>
</svg>